<?xml version="1.0" encoding="UTF-8" standalone="no"?>
<svg width="46px" height="46px" viewBox="0 0 46 46" version="1.1" xmlns="http://www.w3.org/2000/svg" xmlns:xlink="http://www.w3.org/1999/xlink">
    <!-- Generator: sketchtool 45.2 (43514) - http://www.bohemiancoding.com/sketch -->
    <title>50888A61-2E03-4087-9922-84310A4037A2</title>
    <desc>Created with sketchtool.</desc>
    <defs></defs>
    <g id="Page-1-Copy" stroke="none" stroke-width="1" fill="none" fill-rule="evenodd">
        <g id="MSH-home" transform="translate(-980.000000, -2778.000000)" fill="#009FE2">
            <g id="Group-8" transform="translate(980.000000, 2778.000000)">
                <g id="Group-4">
                    <g id="if_thefreeforty_chronometer_1243674-copy" fill-rule="nonzero">
                        <path d="M21.2955736,0.419498326 L18.7999986,0.419498326 C8.31858343,1.084985 0,9.73631177 0,20.2177269 C0,31.198257 8.9840701,40.1823271 19.9646002,40.1823271 C30.9451304,40.1823271 39.9292005,31.198257 39.9292005,20.2177269 C39.9292005,9.73631177 31.610617,1.084985 21.2955736,0.419498326 Z M19.9655743,36.6963869 C10.8678604,36.6963869 3.49557503,29.3245126 3.49557503,20.2273059 C3.49557503,11.1300993 10.8678604,3.91507335 19.9655743,3.91507335 C29.0632882,3.91507335 36.4355737,11.2869477 36.4355737,20.3841543 C36.4355737,29.4813609 29.0632882,36.6963869 19.9655743,36.6963869 Z" id="Shape"></path>
                    </g>
                    <rect id="Rectangle-17" transform="translate(38.854479, 39.073148) rotate(45.000000) translate(-38.854479, -39.073148) " x="29.8851592" y="37.5731475" width="17.9386393" height="3" rx="1.5"></rect>
                </g>
                <g id="Group-5" transform="translate(17.000000, 12.000000)">
                    <rect id="Rectangle-7" x="2" y="1" width="2" height="14"></rect>
                    <rect id="Rectangle-8" x="0" y="0" width="6" height="2"></rect>
                    <rect id="Rectangle-9" x="0" y="14" width="6" height="2"></rect>
                </g>
            </g>
        </g>
    </g>
</svg>