<svg width="46" height="58" viewBox="0 0 46 58" xmlns="http://www.w3.org/2000/svg"><title>Shape</title><path d="M11.117 44.765l-1.342 1.363c-.575.583-.575 1.557 0 2.14.192.39.575.39.958.39.384 0 .767 0 1.15-.39l1.342-1.362c.575-.584.575-1.557 0-2.14-.575-.585-1.533-.39-2.108 0zm-3.45-11.288H5.75c-.767 0-1.533.583-1.533 1.557 0 .973.575 1.557 1.533 1.557h1.917c.766 0 1.533-.583 1.533-1.556 0-.974-.767-1.557-1.533-1.557zM23 20.63c.767 0 1.533-.583 1.533-1.556v-1.946c0-.78-.575-1.558-1.533-1.558s-1.533.584-1.533 1.558v1.946c0 .973.766 1.557 1.533 1.557zm-11.117.78c-.575-.584-1.533-.584-2.108 0-.575.583-.575 1.556 0 2.14l1.342 1.363c.19.194.575.39.958.39s.767-.196.958-.39c.575-.584.575-1.557 0-2.14l-1.15-1.364zm17.825 4.476l-6.325 6.228c-.958-.195-1.916 0-2.683.584-1.15 1.168-1.15 2.92 0 4.087 1.15 1.168 2.875 1.168 4.025 0 .767-.778.958-1.75.767-2.725l6.325-6.228c.575-.584.575-1.557 0-2.14-.575-.39-1.534-.39-2.11.194zm-5.175-14.403v-1.168c2.11-.583 3.834-2.724 3.834-5.06C28.175 2.53 25.875 0 23 0s-5.175 2.336-5.175 5.255c0 2.336 1.533 4.477 3.833 5.06v1.168C9.583 12.263 0 22.383 0 34.643 0 47.49 10.35 58 23 58s23-10.51 23-23.356c0-12.26-9.583-22.382-21.467-23.16zM20.7 5.45c0-1.363.958-2.336 2.3-2.336 1.342 0 2.3.973 2.3 2.336 0 1.167-.958 2.335-2.3 2.335-1.342 0-2.3-1.168-2.3-2.335zM23 55.08c-11.117 0-20.125-9.147-20.125-20.436 0-11.288 9.008-20.24 20.125-20.24s20.125 9.146 20.125 20.435c0 11.288-9.008 20.24-20.125 20.24zm0-6.033c-.767 0-1.533.584-1.533 1.557v1.946c0 .78.575 1.557 1.533 1.557s1.533-.584 1.533-1.557v-1.946c0-.973-.766-1.557-1.533-1.557zm17.25-15.57h-1.917c-.766 0-1.533.583-1.533 1.557 0 .973.575 1.557 1.533 1.557h1.917c.767 0 1.533-.583 1.533-1.556 0-.974-.766-1.557-1.533-1.557zM34.117 21.41l-1.342 1.362c-.575.584-.575 1.557 0 2.14.192.195.575.39.958.39.384 0 .767-.195.96-.39l1.34-1.362c.575-.584.575-1.557 0-2.14-.383-.584-1.34-.584-1.916 0zm.766 23.355c-.575-.584-1.533-.584-2.108 0-.575.584-.575 1.557 0 2.14l1.342 1.363c.383.39.766.39 1.15.39.383 0 .766-.195.958-.39.575-.583.575-1.557 0-2.14l-1.342-1.363z" fill-rule="nonzero" fill="#009FE2"/></svg>