<?xml version="1.0" encoding="utf-8"?>
<!-- Generator: Adobe Illustrator 16.0.0, SVG Export Plug-In . SVG Version: 6.00 Build 0)  -->
<!DOCTYPE svg PUBLIC "-//W3C//DTD SVG 1.1//EN" "http://www.w3.org/Graphics/SVG/1.1/DTD/svg11.dtd">
<svg version="1.1" id="Layer_1" xmlns="http://www.w3.org/2000/svg" xmlns:xlink="http://www.w3.org/1999/xlink" x="0px" y="0px"
	 width="54.873px" height="46.266px" viewBox="-9 0.625 54.873 46.266" enable-background="new -9 0.625 54.873 46.266"
	 xml:space="preserve">
<g>
	<rect x="16.5" y="4.625" fill="#009FE2" width="2" height="2"/>
	<path fill="#009FE2" d="M10.5,40.625c-0.553,0-1,0.447-1,1s0.447,1,1,1h6c0.553,0,1-0.447,1-1s-0.447-1-1-1H10.5z"/>
	<path fill="#009FE2" d="M21.5,40.625c-0.553,0-1,0.447-1,1s0.447,1,1,1h2.992c-0.261-0.598-0.406-1.244-0.406-1.916
		c0-0.028,0.008-0.056,0.008-0.084H21.5z"/>
	<path fill="#009FE2" d="M6.5,44.625c-1.104,0-2-0.896-2-2v-4h20.081c0.23-0.475,0.524-0.921,0.908-1.305
		c0.344-0.344,0.74-0.607,1.157-0.829c-0.239-0.593-0.634-1.461-1.104-2.106c-0.024-0.014-0.847-1.738-4.998-1.79
		c-0.004-0.02-0.009-1.042-0.022-1.026c0.321-0.202,0.738-0.516,1.052-0.816c0.256-0.156,1.161-1.029,1.452-2.583
		c0.086-0.542,0.488-3.099,0.488-4.166c0-3.171-1.266-6.381-5.954-6.381c-0.021,0-0.1,0-0.121,0c-4.688,0-5.953,3.21-5.953,6.381
		c0,1.067,0.401,3.624,0.488,4.166c0.291,1.554,1.197,2.427,1.452,2.583c0.314,0.3,0.731,0.614,1.051,0.816
		c-0.012-0.016-0.016,1.006-0.022,1.026c-4.15,0.052-4.973,1.776-4.998,1.79c-0.504,0.691-0.929,1.651-1.16,2.24H4.5v-24
		c0-1.104,0.896-2,2-2h7c0,2.209,1.791,4,4,4s4-1.791,4-4h7c1.104,0,2,0.896,2,2v23.59c0.653,0.235,1.258,0.598,1.764,1.103
		l0.236,0.236V12.625c0-2.209-1.791-4-4-4h-7v-4c0-2.209-1.791-4-4-4s-4,1.791-4,4v4h-7c-2.209,0-4,1.791-4,4v30
		c0,2.209,1.791,4,4,4h21.519l-2-2H6.5z M11.077,35.602c0.005-0.008,0.617-0.869,3.21-0.983c0.001,0,0.001,0,0.003,0
		c0.858,0,2.223-0.656,2.223-2.019c0-0.339-0.029-1.469-0.029-1.483c0.004-0.007,0.018-0.78,0.018-0.78s-1.166-0.602-2.031-1.378
		c-0.507-0.417-0.741-1.362-0.741-1.362c-0.135-0.828-0.238-2.877-0.238-3.703c0-2.061,1.033-4.28,4.007-4.28
		c2.974,0,4.007,2.218,4.007,4.28c0,0.826-0.102,2.875-0.238,3.703c0,0-0.233,0.945-0.74,1.362
		c-0.865,0.776-2.031,1.378-2.031,1.378s0.014,0.773,0.018,0.78c0,0.015-0.029,1.145-0.029,1.483c0,1.364,1.365,2.02,2.224,2.02
		c0.001,0,0.001,0,0.002,0c2.592,0.113,3.205,0.975,3.211,0.984c0.16,0.252,0.379,0.504,0.582,1.021H10.498
		C10.7,36.107,10.919,35.855,11.077,35.602z M15.5,4.625c0-1.104,0.896-2,2-2c1.104,0,2,0.896,2,2v6c0,1.104-0.896,2-2,2
		c-1.104,0-2-0.896-2-2V4.625z"/>
	<path fill="#009FE2" d="M45.495,33.873c-0.505-0.505-1.322-0.505-1.827,0l-9.899,9.899l-3.978-3.978
		c-0.505-0.504-1.322-0.504-1.827,0c-0.504,0.504-0.504,1.322,0.001,1.827l4.89,4.89c0.001,0.001,0.001,0.001,0.001,0.001
		c0.236,0.236,0.544,0.353,0.854,0.366c0.02,0.001,0.038,0.012,0.059,0.012c0.028,0,0.057-0.015,0.085-0.017
		c0.302-0.021,0.598-0.132,0.828-0.361c0-0.001,0-0.001,0-0.001l10.812-10.812C45.999,35.194,45.999,34.377,45.495,33.873z"/>
</g>
</svg>
